<?xml version="1.0" encoding="UTF-8"?>
<svg width="128px" height="128px" viewBox="0 0 128 128" version="1.1" xmlns="http://www.w3.org/2000/svg" xmlns:xlink="http://www.w3.org/1999/xlink">
    <title>icons/integrity-management/strategy</title>
    <defs>
        <linearGradient x1="15.3759681%" y1="100%" x2="15.3759681%" y2="0%" id="linearGradient-1">
            <stop stop-color="#108ECC" offset="0%"></stop>
            <stop stop-color="#005876" offset="100%"></stop>
        </linearGradient>
    </defs>
    <g id="Desktop" stroke="none" stroke-width="1" fill="none" fill-rule="evenodd">
        <g id="desktop/erweiterung-Navigation-1-Copy" transform="translate(-351.000000, -279.000000)" fill="url(#linearGradient-1)">
            <g id="icons/integrity-management/strategy" transform="translate(351.000000, 279.000000)">
                <rect id="Rectangle" fill-opacity="0.01" x="0" y="0" width="128" height="128" rx="1"></rect>
                <path d="M74.6666667,20 C93.0761583,20 108,34.9238417 108,53.3333333 C108,66.8822512 99.9163732,78.5431368 88.3089196,83.75619 L91.9828689,106.453619 L89.3504645,106.879715 L85.7717113,84.7720801 C82.2981043,85.999064 78.560349,86.6666667 74.6666667,86.6666667 C70.8229691,86.6666667 67.0822763,86.0127409 63.573381,84.7757794 L59.9827456,106.880475 L57.3505877,106.452858 L61.0370386,83.762244 C57.7583337,82.29253 54.7263422,80.2929166 52.0578379,77.8276787 L46.666,83.219 L46.6666667,104 L44,104 L44,85.885 L38.666,91.219 L38.6666667,112 L36,112 L36,93.885 L25.3333333,104.552285 L23.4477153,102.666667 L34.115,91.999 L16,92 L16,89.3333333 L36.781,89.333 L42.114,84 L24,84 L24,81.3333333 L44.781,81.333 L50.7967874,75.3177394 C50.8598076,75.1911845 50.9441891,75.072575 51.0499205,74.9672939 C51.1540084,74.8636493 51.270925,74.7807509 51.3955347,74.7185877 L56.4664577,69.6469562 C56.528529,69.5268646 56.6100654,69.4142464 56.7110545,69.3137854 C56.8106173,69.2147434 56.9218969,69.1346702 57.0404054,69.0735541 L63.8415051,62.2724783 C63.9034316,62.0581003 64.0200977,61.8563565 64.1912305,61.6893919 C64.3536132,61.5309642 64.5460909,61.4223328 64.7497449,61.3632644 L70.0721146,56.0432252 C69.6027087,55.2490737 69.3333333,54.3226615 69.3333333,53.3333333 C69.3333333,50.3878147 71.721148,48 74.6666667,48 C77.6121853,48 80,50.3878147 80,53.3333333 C80,56.278852 77.6121853,58.6666667 74.6666667,58.6666667 C73.6773385,58.6666667 72.7509263,58.3972913 71.9567748,57.9278854 L67.1757271,62.7091771 C69.2757079,64.390471 71.8950552,65.3333333 74.6666667,65.3333333 C81.2940837,65.3333333 86.6666667,59.9607503 86.6666667,53.3333333 C86.6666667,46.7059163 81.2940837,41.3333333 74.6666667,41.3333333 C68.0392497,41.3333333 62.6666667,46.7059163 62.6666667,53.3333333 C62.6666667,54.7423647 62.9092549,56.114891 63.3747662,57.4054561 L61.332036,59.448454 C60.4596472,57.5492478 60,55.4733574 60,53.3333333 C60,45.233157 66.5664903,38.6666667 74.6666667,38.6666667 C82.766843,38.6666667 89.3333333,45.233157 89.3333333,53.3333333 C89.3333333,61.4335097 82.766843,68 74.6666667,68 C71.1797199,68 67.8848662,66.77594 65.2813551,64.6047715 L59.6084885,70.2759081 C63.7164171,73.9317167 69.0262239,76 74.6666667,76 C87.185121,76 97.3333333,65.8517877 97.3333333,53.3333333 C97.3333333,40.814879 87.185121,30.6666667 74.6666667,30.6666667 C62.1482123,30.6666667 52,40.814879 52,53.3333333 C52,57.6494278 53.2082267,61.7800943 55.4383326,65.3418009 L53.5094649,67.2721681 C50.8050458,63.1762325 49.3333333,58.3645902 49.3333333,53.3333333 C49.3333333,39.3421197 60.675453,28 74.6666667,28 C88.6578803,28 100,39.3421197 100,53.3333333 C100,67.324547 88.6578803,78.6666667 74.6666667,78.6666667 C68.3114733,78.6666667 62.3262215,76.3140778 57.7200934,72.1644605 L53.9450678,75.9404625 C59.5493631,81.0825508 66.8753816,84 74.6666667,84 C91.603399,84 105.333333,70.2700657 105.333333,53.3333333 C105.333333,36.396601 91.603399,22.6666667 74.6666667,22.6666667 C57.7299343,22.6666667 44,36.396601 44,53.3333333 C44,59.8016061 46.0064092,65.9624878 49.67335,71.1079347 L47.7633333,73.017 L47.7116827,72.9468621 C43.5924196,67.2957703 41.3333333,60.484085 41.3333333,53.3333333 C41.3333333,34.9238417 56.257175,20 74.6666667,20 Z M56.7013366,67.8527554 C56.6457432,68.179487 56.4689949,68.4861121 56.1819147,68.699327 C56.0070662,68.8291872 55.8108731,68.9098523 55.609897,68.9437674 L56.7013366,67.8527554 Z" id="Combined-Shape"></path>
            </g>
        </g>
    </g>
</svg>